<svg width="40" height="40" viewBox="0 0 40 40" fill="none" xmlns="http://www.w3.org/2000/svg">
  <path d="M20 2C20 2 6 8 6 20C6 32 20 38 20 38C20 38 34 32 34 20C34 8 20 2 20 2Z" fill="#1F2937"/>
  <path d="M11 14C11 14 14.5 11 20 11C25.5 11 29 14 29 14" stroke="white" stroke-width="2" stroke-linecap="round"/>
  <path d="M14 17C14 17 16.5 15 20 15C23.5 15 26 17 26 17" stroke="white" stroke-width="2" stroke-linecap="round"/>
  <path d="M17 20C17 20 18.5 19 20 19C21.5 19 23 20 23 20" stroke="white" stroke-width="2" stroke-linecap="round"/>
  <path d="M20 30C20 30 16 26 16 23C16 20.5 17.5 19 20 19C22.5 19 24 20.5 24 23C24 26 20 30 20 30Z" fill="white"/>
  <circle cx="20" cy="23" r="2" fill="#1F2937"/>
</svg>
